<svg width="40" height="40" viewBox="0 0 40 40" fill="none" xmlns="http://www.w3.org/2000/svg">
<g filter="url(#filter0_dd_516_690)">
<circle cx="20" cy="20" r="15" fill="#0256FF"/>
</g>
<path d="M26.875 18.7903H13.125C12.7798 18.7903 12.5 19.3319 12.5 20C12.5 20.668 12.7798 21.2096 13.125 21.2096H26.875C27.2202 21.2096 27.5 20.668 27.5 20C27.5 19.3319 27.2202 18.7903 26.875 18.7903Z" fill="white"/>
<path d="M26.875 12.5H13.125C12.7798 12.5 12.5 13.0416 12.5 13.7097C12.5 14.3778 12.7798 14.9194 13.125 14.9194H26.875C27.2202 14.9194 27.5 14.3778 27.5 13.7097C27.5 13.0416 27.2202 12.5 26.875 12.5Z" fill="white"/>
<path d="M26.875 25.0807H13.125C12.7798 25.0807 12.5 25.6223 12.5 26.2904C12.5 26.9585 12.7798 27.5 13.125 27.5H26.875C27.2202 27.5 27.5 26.9585 27.5 26.2904C27.5 25.6223 27.2202 25.0807 26.875 25.0807Z" fill="white"/>
<defs>
<filter id="filter0_dd_516_690" x="1" y="0" width="38" height="40" filterUnits="userSpaceOnUse" color-interpolation-filters="sRGB">
<feFlood flood-opacity="0" result="BackgroundImageFix"/>
<feColorMatrix in="SourceAlpha" type="matrix" values="0 0 0 0 0 0 0 0 0 0 0 0 0 0 0 0 0 0 127 0" result="hardAlpha"/>
<feOffset dx="1" dy="2"/>
<feGaussianBlur stdDeviation="1.5"/>
<feComposite in2="hardAlpha" operator="out"/>
<feColorMatrix type="matrix" values="0 0 0 0 0 0 0 0 0 0 0 0 0 0 0 0 0 0 0.2 0"/>
<feBlend mode="normal" in2="BackgroundImageFix" result="effect1_dropShadow_516_690"/>
<feColorMatrix in="SourceAlpha" type="matrix" values="0 0 0 0 0 0 0 0 0 0 0 0 0 0 0 0 0 0 127 0" result="hardAlpha"/>
<feOffset dx="-1" dy="-2"/>
<feGaussianBlur stdDeviation="1.5"/>
<feComposite in2="hardAlpha" operator="out"/>
<feColorMatrix type="matrix" values="0 0 0 0 1 0 0 0 0 1 0 0 0 0 1 0 0 0 0.15 0"/>
<feBlend mode="normal" in2="effect1_dropShadow_516_690" result="effect2_dropShadow_516_690"/>
<feBlend mode="normal" in="SourceGraphic" in2="effect2_dropShadow_516_690" result="shape"/>
</filter>
</defs>
</svg>
